<svg xmlns="http://www.w3.org/2000/svg" viewBox="0 0 640 360" font-family="ui-monospace, 'IBM Plex Mono', monospace">
  <rect width="640" height="360" fill="#0C101A"/>
  <g stroke="#182031" stroke-width="1">
    <line x1="0" y1="90" x2="640" y2="90"/>
    <line x1="0" y1="160" x2="640" y2="160"/>
    <line x1="0" y1="230" x2="640" y2="230"/>
    <line x1="0" y1="300" x2="640" y2="300"/>
  </g>
  <text x="32" y="48" fill="#7E8AA0" font-size="11" letter-spacing="2">KALMAN ADAPTIVE — EQUITY CURVE</text>
  <text x="608" y="48" fill="#55617A" font-size="11" text-anchor="end">BACKTEST 2019–2025</text>
  <!-- benchmark -->
  <polyline points="32,286 90,280 148,288 206,270 264,278 322,262 380,270 438,252 496,258 554,244 608,250"
    fill="none" stroke="#55617A" stroke-width="1.5"/>
  <!-- strategia -->
  <polyline points="32,290 90,276 148,268 206,240 264,250 322,206 380,214 438,168 496,178 554,124 608,102"
    fill="none" stroke="#FF7A29" stroke-width="2.5"/>
  <circle cx="608" cy="102" r="3.5" fill="#FF7A29"/>
  <!-- drawdown shading -->
  <rect x="264" y="330" width="58" height="6" fill="#2C3850"/>
  <rect x="438" y="330" width="58" height="6" fill="#2C3850"/>
  <text x="32" y="340" fill="#55617A" font-size="10">DRAWDOWN WINDOWS</text>
  <text x="470" y="86" fill="#FF7A29" font-size="11">— STRATEGIA</text>
  <text x="560" y="86" fill="#55617A" font-size="11">— B&amp;H</text>
</svg>
